<svg viewBox="0 0 660 360" xmlns="http://www.w3.org/2000/svg" fill-rule="evenodd" clip-rule="evenodd" stroke-linejoin="round" stroke-miterlimit="1.414"><path fill="none" d="M0 0h660v360H0z"/><g fill="#fff" fill-rule="nonzero"><path d="M77.879 251.115c3.842-4.854 5.763-12.114 5.763-21.777 0-5.89-.851-10.952-2.554-15.186-3.221-8.145-9.111-12.217-17.67-12.217-8.605 0-14.496 4.302-17.671 12.908-1.702 4.601-2.554 10.445-2.554 17.532 0 5.706.852 10.561 2.554 14.564 3.221 7.639 9.112 11.459 17.671 11.459 5.798 0 10.618-2.428 14.461-7.283zm-46.627-57.946h12.079v9.801c2.485-3.359 5.2-5.959 8.145-7.8 4.188-2.761 9.112-4.141 14.772-4.141 8.375 0 15.485 3.209 21.329 9.629 5.844 6.419 8.766 15.588 8.766 27.506 0 16.106-4.211 27.611-12.632 34.513-5.338 4.372-11.55 6.558-18.637 6.558-5.568 0-10.238-1.22-14.012-3.659-2.209-1.38-4.67-3.75-7.385-7.109v37.757H31.252V193.169zM153.344 194.86c4.924 2.462 8.674 5.648 11.251 9.56 2.485 3.727 4.142 8.076 4.97 13.045.736 3.406 1.105 8.836 1.105 16.29h-54.185c.23 7.501 2.001 13.518 5.315 18.051 3.313 4.532 8.444 6.799 15.392 6.799 6.489 0 11.666-2.14 15.531-6.42 2.209-2.485 3.773-5.361 4.694-8.628h12.217c-.322 2.715-1.392 5.741-3.21 9.077-1.817 3.336-3.853 6.063-6.108 8.179-3.774 3.682-8.444 6.167-14.012 7.455-2.992.736-6.374 1.105-10.147 1.105-9.204 0-17.003-3.348-23.4-10.044-6.396-6.695-9.594-16.071-9.594-28.127 0-11.873 3.221-21.513 9.663-28.922 6.443-7.409 14.864-11.113 25.264-11.113 5.245 0 10.33 1.231 15.254 3.693zm4.556 29.025c-.506-5.384-1.68-9.687-3.52-12.908-3.406-5.982-9.089-8.973-17.05-8.973-5.706 0-10.492 2.059-14.357 6.178-3.865 4.118-5.913 9.353-6.143 15.703h41.07zM57.423 127.74c.859 6.197 2.547 10.829 5.062 13.897 4.602 5.584 12.486 8.375 23.653 8.375 6.688 0 12.118-.736 16.29-2.209 7.915-2.822 11.872-8.068 11.872-15.737 0-4.479-1.963-7.946-5.89-10.4-3.927-2.393-10.093-4.51-18.499-6.351l-14.357-3.221c-14.112-3.19-23.867-6.657-29.267-10.4-9.142-6.258-13.713-16.044-13.713-29.358 0-12.149 4.418-22.242 13.253-30.28C54.662 34.019 67.639 30 84.757 30c14.296 0 26.491 3.789 36.584 11.366 10.093 7.578 15.385 18.576 15.876 32.994h-27.242c-.491-8.16-4.05-13.958-10.676-17.394-4.418-2.27-9.909-3.405-16.474-3.405-7.302 0-13.13 1.472-17.487 4.417-4.356 2.945-6.534 7.056-6.534 12.333 0 4.847 2.147 8.467 6.442 10.86 2.761 1.595 8.651 3.466 17.671 5.614l23.376 5.614c10.247 2.454 17.978 5.737 23.193 9.848 8.099 6.381 12.148 15.615 12.148 27.702 0 12.394-4.739 22.686-14.219 30.877-9.479 8.191-22.87 12.287-40.173 12.287-17.67 0-31.567-4.034-41.691-12.103-10.124-8.068-15.186-19.158-15.186-33.27h27.058zM145.481 88.902V70.219h13.99V42.241h25.953v27.978h16.29v18.683h-16.29v53.011c0 4.111.522 6.673 1.565 7.685 1.043 1.012 4.233 1.519 9.571 1.519a75.318 75.318 0 0 0 5.154-.184v19.603l-12.424.46c-12.394.43-20.861-1.718-25.402-6.442-2.945-3.007-4.417-7.639-4.417-13.897V88.902h-13.99zM269.157 120.838a28.51 28.51 0 0 1-5.016 2.53c-1.687.645-4.004 1.243-6.949 1.795l-5.89 1.105c-5.522.981-9.479 2.178-11.872 3.589-4.05 2.393-6.075 6.105-6.075 11.136 0 4.479 1.243 7.715 3.728 9.71 2.485 1.994 5.507 2.991 9.065 2.991 5.645 0 10.845-1.657 15.6-4.97 4.755-3.313 7.225-9.357 7.409-18.131v-9.755zm-15.922-12.241c4.847-.614 8.314-1.381 10.4-2.301 3.742-1.595 5.614-4.08 5.614-7.455 0-4.11-1.427-6.948-4.28-8.513-2.853-1.564-7.04-2.347-12.562-2.347-6.197 0-10.584 1.534-13.161 4.602-1.841 2.27-3.068 5.338-3.682 9.203h-25.309c.552-8.773 3.006-15.983 7.363-21.627 6.933-8.836 18.836-13.253 35.709-13.253 10.983 0 20.738 2.178 29.267 6.534 8.528 4.356 12.792 12.578 12.792 24.665v46.017c0 3.191.062 7.056.184 11.596.185 3.436.706 5.768 1.565 6.995.859 1.227 2.147 2.239 3.865 3.037v3.866h-28.53c-.798-2.025-1.35-3.927-1.657-5.707-.306-1.779-.552-3.804-.736-6.074-3.62 3.927-7.792 7.271-12.517 10.032-5.644 3.252-12.025 4.878-19.143 4.878-9.08 0-16.581-2.593-22.502-7.777-5.921-5.185-8.881-12.532-8.881-22.042 0-12.333 4.755-21.26 14.265-26.782 5.215-3.007 12.885-5.154 23.009-6.443l8.927-1.104zM372.584 141.131c4.234-4.632 6.351-12.01 6.351-22.134 0-9.51-2.01-16.75-6.028-21.72-4.019-4.97-9.403-7.455-16.152-7.455-9.204 0-15.554 4.326-19.051 12.977-1.841 4.602-2.761 10.277-2.761 17.026 0 5.829.981 11.014 2.945 15.554 3.558 8.467 9.939 12.701 19.143 12.701 6.135 0 11.32-2.317 15.553-6.949zm-8.927-71.925c6.381 2.639 11.535 7.486 15.462 14.542v-14.45h25.493v95.164c0 12.946-2.178 22.701-6.534 29.266-7.486 11.29-21.843 16.935-43.072 16.935-12.823 0-23.285-2.516-31.384-7.547s-12.578-12.547-13.437-22.548h28.531c.736 3.067 1.933 5.276 3.589 6.626 2.823 2.393 7.578 3.589 14.266 3.589 9.448 0 15.768-3.16 18.959-9.479 2.086-4.05 3.129-10.86 3.129-20.432v-6.442c-2.516 4.295-5.216 7.516-8.099 9.663-5.216 3.989-11.995 5.983-20.34 5.983-12.885 0-23.177-4.525-30.877-13.575-7.7-9.05-11.55-21.306-11.55-36.768 0-14.909 3.712-27.441 11.136-37.596 7.424-10.154 17.946-15.231 31.567-15.231 5.031 0 9.418.767 13.161 2.3zM451.347 57.334h-26.598V33.129h26.598v24.205zm-26.598 11.964h26.598v100.318h-26.598V69.298zM499.002 57.334h-26.598V33.129h26.598v24.205zm-26.598 11.964h26.598v100.318h-26.598V69.298zM211.95 214.589V244.5h33.316c5.951 0 10.783-1.119 14.495-3.359 3.712-2.239 5.568-6.212 5.568-11.918 0-6.32-2.454-10.492-7.362-12.517-4.234-1.411-9.633-2.117-16.198-2.117H211.95zm0 52.368v36.169h33.316c5.951 0 10.584-.798 13.897-2.393 6.013-2.945 9.019-8.59 9.019-16.934 0-7.056-2.914-11.903-8.743-14.541-3.252-1.473-7.823-2.24-13.713-2.301H211.95zm74.179-61.479c4.172 5.768 6.258 12.67 6.258 20.708 0 8.283-2.086 14.94-6.258 19.971-2.332 2.822-5.767 5.399-10.308 7.731 6.933 2.516 12.164 6.504 15.692 11.964 3.528 5.461 5.292 12.087 5.292 19.88 0 8.037-2.025 15.247-6.074 21.628-2.577 4.233-5.798 7.792-9.664 10.676-4.356 3.313-9.495 5.583-15.416 6.81-5.92 1.227-12.347 1.841-19.281 1.841h-61.478V191.029h65.896c16.627.245 28.408 5.062 35.341 14.449zM339.858 226.37v60.466c0 5.706.675 10.001 2.025 12.885 2.393 5.092 7.087 7.639 14.081 7.639 8.958 0 15.094-3.62 18.407-10.86 1.718-3.927 2.577-9.112 2.577-15.554V226.37h26.598v100.317h-25.494v-14.173c-.245.306-.858 1.227-1.84 2.761a18.529 18.529 0 0 1-3.497 4.049c-4.111 3.681-8.084 6.197-11.919 7.547-3.835 1.35-8.329 2.025-13.483 2.025-14.848 0-24.849-5.338-30.003-16.014-2.884-5.89-4.326-14.572-4.326-26.046V226.37h26.874zM505.179 232.122c6.596 5.43 9.894 14.434 9.894 27.012v67.553h-26.874v-61.019c0-5.276-.706-9.326-2.117-12.148-2.577-5.154-7.485-7.731-14.725-7.731-8.897 0-15.002 3.773-18.315 11.32-1.718 3.988-2.577 9.081-2.577 15.278v54.3h-26.138V226.554h25.309v14.633c3.375-5.154 6.566-8.866 9.572-11.136 5.399-4.049 12.241-6.074 20.524-6.074 10.369 0 18.851 2.715 25.447 8.145zM560.013 251.035c-3.344 3.804-5.446 8.958-6.305 15.462h40.772c-.43-6.934-2.531-12.195-6.305-15.784-3.773-3.59-8.452-5.384-14.035-5.384-6.074 0-10.783 1.902-14.127 5.706zm36.675-22.64c6.688 3.129 12.21 8.068 16.566 14.817 3.927 5.952 6.474 12.854 7.639 20.708.675 4.601.951 11.228.829 19.879h-68.658c.368 10.062 3.528 17.118 9.48 21.168 3.62 2.515 7.976 3.773 13.069 3.773 5.399 0 9.786-1.534 13.16-4.602 1.841-1.656 3.467-3.957 4.878-6.902h26.782c-.675 5.951-3.773 11.995-9.295 18.131-8.59 9.755-20.616 14.633-36.078 14.633-12.762 0-24.02-4.111-33.776-12.333-9.756-8.221-14.633-21.597-14.633-40.126 0-17.364 4.402-30.678 13.206-39.943 8.805-9.265 20.233-13.897 34.283-13.897 8.344 0 15.861 1.564 22.548 4.694z"/></g><path d="M424.77 202.344c.506-1.202 1.699-2.474 3.581-3.817 1.633-1.169 2.69-2.006 3.171-2.512.737-.787 1.106-1.649 1.106-2.586 0-.763-.211-1.397-.634-1.902-.423-.506-1.028-.759-1.815-.759-1.078 0-1.811.402-2.201 1.206-.224.464-.356 1.202-.398 2.213h-3.444c.058-1.533.336-2.772.833-3.717.945-1.799 2.624-2.698 5.036-2.698 1.906 0 3.423.528 4.551 1.585 1.127 1.057 1.691 2.456 1.691 4.196 0 1.335-.398 2.52-1.194 3.556-.522.688-1.38 1.455-2.574 2.301l-1.417 1.007c-.887.63-1.495 1.086-1.822 1.368a4.006 4.006 0 0 0-.827.982h7.871v3.121h-12.347c.033-1.293.311-2.475.833-3.544zM441.718 201.803c.34 1.099 1.036 1.648 2.089 1.648s1.743-.549 2.07-1.648c.328-1.098.491-2.683.491-4.756 0-2.172-.163-3.78-.491-4.824-.327-1.045-1.017-1.567-2.07-1.567s-1.749.522-2.089 1.567c-.34 1.044-.51 2.652-.51 4.824 0 2.073.17 3.658.51 4.756zm6.92-11.644c.924 1.616 1.386 3.912 1.386 6.888s-.462 5.268-1.386 6.876c-.925 1.608-2.535 2.412-4.831 2.412-2.296 0-3.906-.804-4.831-2.412-.924-1.608-1.386-3.9-1.386-6.876 0-2.976.462-5.272 1.386-6.888.925-1.617 2.535-2.425 4.831-2.425 2.296 0 3.906.808 4.831 2.425zM458.952 187.585h12.994v3.22h-9.189v4.216h8.045v3.183h-8.045v7.684h-3.805v-18.303zM487.551 190.805h-9.698v3.892h8.902v3.183h-8.902v4.713h10.146v3.295H474.11V187.56h13.441v3.245zM494.191 190.743v4.041h4.501c.805 0 1.457-.151 1.959-.454.501-.302.752-.839.752-1.61 0-.854-.331-1.417-.995-1.691-.572-.19-1.301-.286-2.188-.286h-4.029zm0 7.075v4.887h4.501c.805 0 1.43-.108 1.878-.324.812-.397 1.219-1.16 1.219-2.287 0-.954-.394-1.609-1.182-1.965-.439-.199-1.057-.303-1.852-.311h-4.564zm10.022-8.306c.564.78.846 1.712.846 2.798 0 1.119-.282 2.018-.846 2.698-.315.381-.779.73-1.392 1.045.936.339 1.643.878 2.12 1.616.476.738.714 1.633.714 2.686 0 1.086-.273 2.06-.82 2.922a5.056 5.056 0 0 1-1.306 1.442c-.588.448-1.282.754-2.082.92-.8.166-1.669.249-2.605.249h-8.306V187.56h8.903c2.246.033 3.837.684 4.774 1.952zM512.918 197.408h14.262v2.711h-14.262zM534.828 202.344c.505-1.202 1.699-2.474 3.581-3.817 1.633-1.169 2.689-2.006 3.17-2.512.738-.787 1.107-1.649 1.107-2.586 0-.763-.212-1.397-.634-1.902-.423-.506-1.028-.759-1.816-.759-1.077 0-1.811.402-2.2 1.206-.224.464-.357 1.202-.398 2.213h-3.445c.058-1.533.336-2.772.834-3.717.945-1.799 2.623-2.698 5.035-2.698 1.907 0 3.424.528 4.551 1.585 1.127 1.057 1.691 2.456 1.691 4.196 0 1.335-.398 2.52-1.194 3.556-.522.688-1.38 1.455-2.573 2.301l-1.418 1.007c-.887.63-1.494 1.086-1.821 1.368a3.984 3.984 0 0 0-.827.982h7.87v3.121h-12.346c.033-1.293.31-2.475.833-3.544zM551.894 202.717c.46.489 1.096.734 1.908.734.813 0 1.449-.245 1.909-.734.46-.489.69-1.177.69-2.064 0-.92-.234-1.618-.702-2.095-.469-.477-1.101-.715-1.897-.715-.795 0-1.427.238-1.896.715-.468.477-.702 1.175-.702 2.095 0 .887.23 1.575.69 2.064zm-3.681-4.576c.46-.82 1.134-1.438 2.021-1.852-.871-.58-1.436-1.208-1.697-1.884-.262-.676-.392-1.308-.392-1.896 0-1.31.493-2.427 1.48-3.351.986-.924 2.379-1.386 4.177-1.386 1.799 0 3.192.462 4.178 1.386.987.924 1.48 2.041 1.48 3.351 0 .588-.131 1.22-.392 1.896-.261.676-.827 1.262-1.697 1.759.887.498 1.554 1.157 2.002 1.977.447.821.671 1.737.671 2.748 0 1.517-.561 2.808-1.685 3.874-1.123 1.065-2.692 1.597-4.706 1.597-2.014 0-3.539-.532-4.576-1.597-1.036-1.066-1.554-2.357-1.554-3.874 0-1.011.23-1.927.69-2.748zm3.917-3.63c.402.414.959.621 1.672.621.722 0 1.279-.207 1.673-.621.393-.415.59-.949.59-1.604 0-.713-.197-1.271-.59-1.673-.394-.402-.951-.603-1.673-.603-.713 0-1.27.201-1.672.603-.402.402-.603.96-.603 1.673 0 .655.201 1.189.603 1.604zM574.021 198.962h4.65l-2.288-7.212-2.362 7.212zm.236-11.402h4.327l6.491 18.328h-4.153l-1.181-3.768h-6.752l-1.268 3.768h-4.004l6.54-18.328zM596.459 191.353c-.502-.407-1.204-.61-2.108-.61h-3.569v5.397h3.569c.904 0 1.606-.22 2.108-.659.501-.44.752-1.136.752-2.089 0-.954-.251-1.633-.752-2.039zm2.903 6.602c-1.094.895-2.657 1.343-4.688 1.343h-3.892v6.59h-3.804V187.56h7.982c1.841 0 3.308.473 4.402 1.418 1.094.945 1.641 2.408 1.641 4.389 0 2.163-.547 3.693-1.641 4.588zM607.196 190.743v4.924h4.339c.862 0 1.509-.099 1.94-.298.763-.348 1.144-1.036 1.144-2.064 0-1.111-.369-1.857-1.107-2.238-.414-.216-1.036-.324-1.865-.324h-4.451zm8.212-2.71c.693.29 1.279.717 1.76 1.28.398.465.713.979.945 1.542.232.564.348 1.206.348 1.927 0 .871-.22 1.727-.659 2.568-.439.841-1.165 1.436-2.176 1.784.846.34 1.444.823 1.797 1.449.352.626.528 1.581.528 2.866v1.231c0 .837.033 1.405.1 1.703.099.473.331.821.696 1.045v.46h-4.215a13.398 13.398 0 0 1-.249-.982 9.051 9.051 0 0 1-.161-1.58l-.025-1.703c-.017-1.169-.23-1.948-.641-2.338-.41-.389-1.179-.584-2.306-.584h-3.954v7.187h-3.743V187.56h8.99c1.285.025 2.273.183 2.965.473z" fill="#1a2031" fill-rule="nonzero"/><g fill="#f2393c"><path d="M523.632 113.853v-10.807c5.013-.223 8.522-.557 10.528-1.003 3.194-.705 5.793-2.116 7.799-4.233 1.374-1.449 2.414-3.38 3.119-5.794.409-1.448.613-2.525.613-3.23h13.202v80.772h-16.266v-55.705h-18.995zM629.635 102.266c-2.377 2.34-5.682 6.508-9.916 12.506s-7.78 12.19-10.64 18.578c-2.265 5.013-4.308 11.141-6.127 18.383-1.82 7.241-2.73 13.183-2.73 17.825h-16.489c.483-14.483 5.237-29.542 14.261-45.177 5.83-9.692 10.714-16.451 14.65-20.276h-40.275l.223-14.261h57.043v12.422z" fill-rule="nonzero"/><path d="M522.309 69.34h-13.19l1.622 18h10.032l1.536-18z"/></g></svg>