<svg viewBox="0 0 246 305" xmlns="http://www.w3.org/2000/svg" fill-rule="evenodd" clip-rule="evenodd" stroke-linejoin="round" stroke-miterlimit="1.414"><path fill="none" d="M0 0h245.333v304.376H0z"/><clipPath id="a"><path d="M0 0h245.333v304.376H0z"/></clipPath><g clip-path="url(#a)" fill="none" stroke="#f02226"><path d="M115.092 89.637l5.778 1.331c7.463 1.787 13.094 4.178 16.892 7.172 5.899 4.648 8.848 11.373 8.848 20.177 0 9.026-3.452 16.523-10.356 22.488-5.88 5.081-13.827 7.999-23.837 8.729 1.727-3.733 2.584-7.823 2.584-12.263 0-1.777-.128-3.471-.43-5.061a20.656 20.656 0 0 0 3.484-.89c5.765-2.055 8.647-5.876 8.647-11.462 0-3.262-1.43-5.787-4.29-7.574-.815-.497-3.671-1.393-7.32-2.394V89.637zM69.256 132.2c-2.279-4.316-3.424-9.387-3.686-15.492-.16-3.723-1.854-7.887-3.687-10.122-1.922-2.332-4.63-3.995-8.124-4.99v-15.67h7.545c4.973 1.469 9.277 3.652 12.913 6.55 7.373 5.876 10.225 14.709 11.06 24.232.314 3.577 1.855 7.887 3.687 10.121 1.108 1.345 2.478 2.468 4.143 3.35.838 1.569 1.236 3.482 1.236 5.697 0 5.386-1.735 9.214-5.21 11.465a40.343 40.343 0 0 1-5.993-2.32c-1.462-3.46-3.703-6.37-6.711-8.74-1.922-1.515-4.313-2.876-7.173-4.081zM191.922 55.919c-2.279-4.316-3.423-9.387-3.686-15.492-.16-3.723-1.854-7.888-3.686-10.122-1.922-2.332-4.63-3.995-8.125-4.99V9.645h7.546c4.972 1.469 9.276 3.652 12.912 6.55 7.373 5.876 10.225 14.709 11.06 24.232.314 3.577 1.855 7.887 3.687 10.121 1.108 1.345 2.478 2.468 4.143 3.35.839 1.569 1.237 3.482 1.237 5.697 0 5.386-1.736 9.214-5.211 11.465a40.386 40.386 0 0 1-5.993-2.32c-1.461-3.46-3.703-6.37-6.711-8.74-1.922-1.515-4.313-2.876-7.173-4.081z"/><path d="M75.28 85.926c4.738 0 8.635.51 11.69 1.528 3.543 1.461 5.314 4.473 5.314 9.034 0 3.022-.722 5.371-2.165 7.046-3.404-.852-6.457-1.758-9.102-2.804-1.659-3.123-3.873-5.921-6.8-8.254a34.922 34.922 0 0 0-6.533-4.097 23.99 23.99 0 0 1-.888-2.453h8.484zm-8.693-17.004c1.486-5.539 4.599-10.356 9.339-14.452 6.904-5.966 16.657-8.949 29.259-8.949 12.87 0 22.992 2.938 30.365 8.815 4.802 3.826 8.04 8.586 9.68 14.353-1.787.459-3.827.684-6.093.684h-15.301l-.62-.927c-3.351-4.067-9.093-6.1-17.226-6.1-4.871 0-8.826.536-11.865 1.609-3.307 1.179-5.665 2.939-7.075 5.28a56.642 56.642 0 0 0-5.261-.313H66.587zM197.946 9.645c4.739 0 8.635.51 11.691 1.528 3.542 1.461 5.313 4.473 5.313 9.034 0 3.022-.721 5.371-2.165 7.046-3.404-.852-6.457-1.758-9.102-2.804-1.658-3.123-3.873-5.921-6.8-8.254a34.946 34.946 0 0 0-6.532-4.097 23.99 23.99 0 0 1-.888-2.453h8.483zm-8.692-17.004c1.485-5.539 4.598-10.356 9.339-14.452 6.904-5.966 16.657-8.949 29.259-8.949 12.869 0 22.991 2.938 30.364 8.815 4.802 3.826 8.04 8.586 9.68 14.353-1.787.459-3.827.684-6.092.684h-15.302l-.619-.927c-3.352-4.067-9.094-6.1-17.227-6.1-4.871 0-8.826.536-11.865 1.609-3.307 1.179-5.665 2.939-7.075 5.28a56.62 56.62 0 0 0-5.26-.313h-15.202zM-47.386 162.207c4.738 0 8.635.51 11.69 1.528 3.543 1.461 5.314 4.473 5.314 9.034 0 3.022-.722 5.371-2.165 7.046-3.404-.852-6.457-1.758-9.102-2.804-1.659-3.123-3.873-5.921-6.8-8.254a34.954 34.954 0 0 0-6.533-4.097 23.99 23.99 0 0 1-.888-2.453h8.484zm-8.693-17.004c1.486-5.539 4.599-10.356 9.339-14.452 6.904-5.966 16.657-8.949 29.259-8.949 12.87 0 22.991 2.938 30.365 8.815 4.801 3.826 8.04 8.586 9.679 14.353-1.786.459-3.826.684-6.092.684H1.169l-.619-.927c-3.351-4.067-9.094-6.1-17.227-6.1-4.871 0-8.825.536-11.864 1.609-3.307 1.179-5.666 2.939-7.075 5.28a56.663 56.663 0 0 0-5.261-.313h-15.202zM7.859 170.327c-1.398-2.575-2.388-5.392-2.97-8.451h11.916c4.206.044 7.48.586 9.86 1.647l.966 1.447c3.351 4.066 9.093 6.1 17.227 6.1 4.87 0 8.825-.537 11.864-1.609 1.914-.683 3.511-1.56 4.789-2.632h17.09c1.701 0 3.36-.051 4.976-.154-1.664 4.632-4.549 8.722-8.656 12.271-6.904 5.966-16.657 8.948-29.259 8.948-9.418 0-17.364-1.573-23.838-4.719-1.474-3.455-3.716-6.367-6.726-8.739-1.937-1.527-4.35-2.896-7.239-4.109zM130.525 94.046c-1.397-2.575-2.388-5.392-2.97-8.451h11.916c4.207.044 7.481.586 9.86 1.647l.966 1.447c3.351 4.066 9.094 6.1 17.227 6.1 4.871 0 8.826-.537 11.864-1.609 1.915-.683 3.511-1.56 4.79-2.632h17.089c1.701 0 3.36-.051 4.976-.154-1.664 4.632-4.549 8.722-8.656 12.271-6.904 5.966-16.657 8.948-29.259 8.948-9.417 0-17.363-1.573-23.838-4.719-1.473-3.455-3.716-6.367-6.726-8.739-1.936-1.527-4.349-2.896-7.239-4.109z"/><path d="M49.981 126.935c-.668-3.508-2.007-6.651-4.016-9.429-2.809-3.803-6.721-6.567-11.734-8.29V68.922h47.558c12.001.177 20.503 3.654 25.507 10.429 3.011 4.162 4.516 9.144 4.516 14.945 0 5.978-1.505 10.782-4.516 14.413-1.683 2.037-4.163 3.897-7.44 5.58 5.004 1.815 8.779 4.694 11.325 8.635 2.547 3.941 3.82 8.723 3.82 14.347 0 5.801-1.462 11.004-4.384 15.609-1.86 3.056-4.185 5.624-6.975 7.705-3.144 2.391-6.852 4.03-11.125 4.915-4.273.886-8.911 1.329-13.916 1.329H52.489a22.51 22.51 0 0 0-2.639-5.75c-2.546-3.941-6.321-6.819-11.325-8.635 3.277-1.683 5.757-3.543 7.44-5.579.208-.252.41-.509.603-.772 0 0 4.752 1.249 7.191 1.937v1.795h24.045l.239-.001.12-.001h.067l.333-.004.035-.001.053-.001.095-.002.181-.004.06-.001.101-.003.118-.004.049-.002c3.604-.117 6.464-.685 8.579-1.703 3.546-1.737 5.643-4.774 6.291-9.113l.003-.02.001-.006.004-.025.008-.056.004-.025.001-.013.005-.031.006-.044.003-.024.003-.02.005-.038.004-.035.003-.02.004-.028.005-.044.004-.026.001-.015.005-.036.006-.05.002-.018.001-.01.005-.044.007-.056.001-.011v-.003l.006-.057.006-.057.005-.048.007-.069.001-.004.001-.009.004-.048.005-.055.001-.012.002-.015.004-.043.004-.047.002-.02.001-.021.003-.037.004-.04.002-.027.002-.027.002-.031.003-.033.003-.036.002-.033.002-.024.002-.025.003-.046.002-.037.001-.018.001-.018.004-.059.003-.039v-.011l.001-.011.004-.08.002-.032v-.005l.007-.127v-.004l.001-.03.004-.084v-.011l.001-.01.001-.039.003-.062v-.019l.001-.017.001-.036.002-.051.001-.027v-.023l.001-.032.001-.041.001-.036.001-.029v-.026l.001-.033.001-.045.001-.035v-.044l.001-.057.001-.038v-.03l.001-.073v-.044-.253l-.001-.07V135.659l-.003-.18v-.015l-.001-.015a11.298 11.298 0 0 0-.005-.184v-.004l-.001-.007c-.166-4.756-2.266-8.047-6.299-9.873l-.078-.034c-1.366-2.367-2.424-5.743-2.678-8.639-.296-3.378-.846-6.669-1.762-9.772 1.796-.404 3.379-1.019 4.751-1.847 2.679-1.616 4.018-4.483 4.018-8.601 0-4.561-1.771-7.573-5.314-9.034-3.055-1.018-6.951-1.527-11.69-1.528H53.759v21.588h8.805c1.553 2.345 2.866 5.938 3.006 9.194.108 2.505.364 4.836.786 7.013H53.759v4.085c-1.155-.264-2.43-.557-3.778-.871zM172.648 50.654c-.669-3.508-2.008-6.651-4.017-9.429-2.809-3.803-6.72-6.567-11.734-8.29V-7.359h47.559c12 .177 20.502 3.654 25.506 10.429 3.011 4.162 4.517 9.144 4.517 14.945 0 5.978-1.506 10.782-4.517 14.413-1.683 2.037-4.163 3.897-7.439 5.58 5.003 1.815 8.778 4.694 11.325 8.635 2.546 3.941 3.819 8.723 3.819 14.347 0 5.801-1.461 11.004-4.384 15.609-1.86 3.056-4.185 5.624-6.974 7.705-3.144 2.391-6.853 4.03-11.126 4.915-4.273.886-8.911 1.329-13.916 1.329h-26.111a22.543 22.543 0 0 0-2.639-5.75c-2.547-3.941-6.322-6.819-11.326-8.635 3.277-1.683 5.757-3.543 7.44-5.579.208-.252.41-.509.604-.772 0 0 4.752 1.249 7.19 1.937v1.795h24.045l.239-.001.121-.001h.067l.332-.004.036-.001.052-.001.096-.002.181-.004.059-.001.101-.003.118-.004.049-.002c3.604-.117 6.464-.685 8.579-1.703 3.546-1.737 5.643-4.774 6.292-9.113l.003-.02.001-.006.003-.025.008-.056.004-.025.002-.013.004-.031.006-.044.003-.024.003-.02.005-.038.005-.035.002-.02.004-.028.006-.044.003-.026.002-.015.004-.036.006-.05.002-.018.001-.01.005-.044.007-.056.001-.011v-.003l.007-.058.006-.057.005-.047.007-.069v-.004l.001-.009.004-.048.006-.055.001-.012.001-.015.004-.043.004-.047.002-.02.002-.021.003-.037.003-.04.002-.027.002-.027.003-.031.002-.033.003-.036.002-.033.002-.024.002-.025.003-.046.002-.037.002-.018.001-.018.003-.059.003-.039v-.011l.001-.011.005-.08.001-.032.001-.005.006-.127v-.004l.001-.03.004-.084.001-.011v-.01l.002-.039.002-.062.001-.019v-.017l.001-.036.002-.051.001-.027.001-.023v-.032l.002-.041v-.036l.001-.029.001-.026v-.033l.001-.045.001-.035v-.02l.001-.024v-.057l.001-.038v-.03l.001-.073v-.044l.001-.134-.001-.119-.001-.07V59.378l-.003-.18v-.015l-.001-.015a11.298 11.298 0 0 0-.005-.184v-.011c-.167-4.756-2.266-8.047-6.3-9.873l-.077-.034c-1.366-2.367-2.425-5.743-2.679-8.639-.296-3.378-.846-6.669-1.761-9.772 1.795-.404 3.378-1.019 4.75-1.847 2.679-1.616 4.018-4.483 4.018-8.601 0-4.561-1.771-7.573-5.313-9.034-3.055-1.018-6.952-1.527-11.691-1.528h-21.521v21.588h8.805c1.553 2.345 2.866 5.938 3.006 9.194.108 2.505.364 4.836.787 7.013h-12.598v4.085a934.27 934.27 0 0 1-3.777-.871z"/><path d="M6.359 126.537c-1.415-3.314-2.122-7.127-2.122-11.438 0-9.027 3.452-16.523 10.356-22.489 5.033-4.348 11.578-7.112 19.638-8.291v17.327c-.501.137-.98.287-1.439.449-5.765 2.056-8.647 5.876-8.647 11.462 0 3.263 1.43 5.787 4.29 7.575 2.86 1.743 31.102 7.976 31.102 7.976 7.463 1.788 13.094 4.179 16.892 7.173 4.145 3.265 6.833 7.557 8.033 12.897-1.886.443-4.103.647-6.658.647H59.585c-6.592-2.386-29.335-7.792-29.335-7.792-3.797-.91-7.191-1.868-10.11-2.985-1.788-3.182-4.206-5.987-7.254-8.417a34.926 34.926 0 0 0-6.527-4.094zM129.025 50.256c-1.415-3.314-2.122-7.127-2.122-11.438 0-9.027 3.452-16.523 10.356-22.489 5.033-4.348 11.579-7.112 19.638-8.291v17.327c-.5.137-.98.287-1.439.449-5.764 2.056-8.647 5.876-8.647 11.462 0 3.262 1.43 5.787 4.29 7.575 2.86 1.743 31.103 7.976 31.103 7.976 7.462 1.788 13.093 4.179 16.891 7.173 4.145 3.265 6.834 7.557 8.033 12.897-1.885.443-4.103.647-6.658.647h-18.219c-6.592-2.386-29.334-7.792-29.334-7.792-3.798-.91-7.192-1.868-10.11-2.985-1.788-3.182-4.207-5.987-7.255-8.417a34.893 34.893 0 0 0-6.527-4.094zM237.759 13.356l5.778 1.331c7.462 1.787 13.093 4.178 16.891 7.172 5.899 4.648 8.849 11.373 8.849 20.177 0 9.026-3.453 16.523-10.357 22.488-5.88 5.081-13.827 7.999-23.837 8.729 1.728-3.733 2.584-7.823 2.584-12.263 0-1.777-.127-3.471-.43-5.061a20.631 20.631 0 0 0 3.484-.89c5.765-2.055 8.647-5.876 8.647-11.462 0-3.262-1.43-5.787-4.29-7.574-.815-.497-3.671-1.393-7.319-2.394V13.356zM-7.574 165.918l5.778 1.331c7.463 1.787 13.093 4.178 16.892 7.172 5.899 4.648 8.848 11.373 8.848 20.177 0 9.026-3.452 16.523-10.356 22.488-5.88 5.081-13.827 7.999-23.838 8.729 1.728-3.733 2.584-7.823 2.584-12.263 0-1.777-.127-3.471-.43-5.061a20.767 20.767 0 0 0 3.485-.889c5.764-2.056 8.647-5.877 8.647-11.463 0-3.262-1.43-5.787-4.29-7.574-.816-.497-3.672-1.393-7.32-2.394v-20.253z"/><path d="M245.493 52.422h-8.997a22.542 22.542 0 0 0-2.648-5.779c-2.547-3.941-6.322-6.82-11.325-8.635 3.276-1.683 5.756-3.543 7.439-5.58 3.011-3.631 4.517-8.435 4.517-14.413 0-5.801-1.506-10.783-4.517-14.945-2.808-3.803-6.718-6.566-11.73-8.29v-7.556c2.815-.773 6.289-1.159 10.424-1.159 3.47 0 6.505.37 9.105 1.11v5.932h24.045c4.295 0 7.782-.808 10.461-2.424a7.638 7.638 0 0 0 1.864-1.568c.477.12.961.238 1.452.356 0 0 8.295 1.972 16.318 4.06-.194.263-.395.52-.604.772-1.683 2.036-4.162 3.896-7.439 5.579 5.004 1.816 8.779 4.694 11.325 8.635 1.745 2.702 2.893 5.799 3.442 9.292-2.414.466-5.226.699-8.435.699-5.369 0-9.696-.886-12.981-2.658-1.027-2.154-2.752-3.779-5.174-4.875-2.093-.948-4.943-1.491-8.55-1.629h-.012l-.165-.006h-.01l-.002-.001-.038-.001-.141-.004-.008-.001h-.003l-.062-.001-.12-.004H262.915l-.082-.002-.104-.002h-.003l-.003-.001-.102-.002-.088-.001h-.004l-.124-.002-.069-.002h-.002l-.196-.002h-24.377v4.043l-.002-.001v20.253l.002.001v1.808h5.962c.631.229 1.096.427 1.355.585 2.86 1.787 4.29 4.312 4.29 7.574 0 3.74-1.291 6.688-3.875 8.845zm23.016-17.626c1.261-.276 2.37-.644 3.326-1.105.461-.226.897-.473 1.309-.743 5.207 1.59 11.157 2.384 17.85 2.384 1.877 0 3.69-.066 5.44-.198a27.873 27.873 0 0 1-1.816 3.339c-1.86 3.056-4.184 5.624-6.974 7.705-3.144 2.392-6.853 4.03-11.126 4.916-2.823.585-5.805.977-8.947 1.175 1.137-3.159 1.706-6.57 1.706-10.233 0-2.594-.256-5.007-.768-7.24zm2.532-79.969c9.264 1.004 16.016 4.376 20.256 10.117 2.01 2.778 3.349 5.921 4.017 9.429-8.479-1.973-19.791-4.734-21.546-5.803-2.86-1.788-4.29-4.313-4.29-7.575 0-2.375.521-4.431 1.563-6.168zM250.8-28.48h-5.446c-5.124-1.52-10.958-2.28-17.502-2.28-3.416 0-6.623.219-9.62.658v-15.383h32.351c-.676 2.525-1.014 5.198-1.014 8.022 0 3.283.411 6.277 1.231 8.983zM.161 204.984h-8.998a22.542 22.542 0 0 0-2.648-5.779c-2.546-3.941-6.321-6.82-11.325-8.635 3.277-1.683 5.757-3.543 7.439-5.58 3.011-3.631 4.517-8.435 4.517-14.413 0-5.801-1.506-10.783-4.517-14.945-2.808-3.803-6.718-6.566-11.729-8.29v-7.556c2.814-.773 6.289-1.159 10.423-1.159 3.471 0 6.505.37 9.105 1.11v5.932h24.045c4.295 0 7.782-.808 10.461-2.424a7.62 7.62 0 0 0 1.864-1.568c.477.12.961.238 1.452.356 0 0 8.296 1.972 16.318 4.06-.193.263-.395.52-.603.772-1.683 2.036-4.163 3.896-7.44 5.579 5.004 1.816 8.779 4.694 11.325 8.635 1.746 2.702 2.893 5.799 3.442 9.292-2.414.466-5.225.699-8.434.699-5.369 0-9.696-.886-12.981-2.658-1.028-2.154-2.753-3.779-5.175-4.875-2.093-.948-4.943-1.491-8.549-1.629H18.14l-.164-.006h-.01l-.002-.001-.039-.001-.141-.004h-.007l-.003-.001-.062-.001-.121-.004h-.008l-.083-.002-.103-.002h-.004l-.003-.001-.101-.002-.088-.001h-.004l-.125-.002-.068-.002h-.002l-.197-.002H-7.572v4.043l-.002-.001v20.253l.002.001v1.808h5.963c.631.229 1.096.427 1.355.585 2.86 1.787 4.29 4.312 4.29 7.574 0 3.74-1.292 6.688-3.875 8.845zm23.015-17.626c1.261-.276 2.37-.644 3.327-1.105.46-.226.897-.473 1.309-.743 5.206 1.59 11.156 2.384 17.85 2.384 1.876 0 3.689-.066 5.439-.198a28.007 28.007 0 0 1-1.815 3.339c-1.86 3.056-4.185 5.624-6.975 7.705-3.144 2.392-6.852 4.03-11.125 4.916-2.823.585-5.806.977-8.948 1.175 1.137-3.159 1.706-6.57 1.706-10.233 0-2.594-.256-5.007-.768-7.24zm2.533-79.969c9.263 1.004 16.015 4.376 20.256 10.117 2.009 2.778 3.348 5.921 4.016 9.429-8.479-1.973-19.791-4.734-21.546-5.803-2.86-1.788-4.29-4.312-4.29-7.575 0-2.375.521-4.431 1.564-6.168zM5.468 124.082H.021c-5.123-1.52-10.957-2.28-17.502-2.28-3.416 0-6.622.219-9.619.658v-15.382H5.25c-.675 2.524-1.013 5.197-1.013 8.021 0 3.283.41 6.277 1.231 8.983zM122.827 128.703h-8.998a22.508 22.508 0 0 0-2.648-5.779c-2.546-3.941-6.321-6.82-11.325-8.635 3.277-1.683 5.757-3.543 7.44-5.58 3.011-3.631 4.516-8.435 4.516-14.413 0-5.801-1.505-10.783-4.516-14.945-2.808-3.803-6.718-6.566-11.73-8.29v-7.556c2.814-.773 6.289-1.159 10.424-1.159 3.47 0 6.505.37 9.104 1.11v5.932h24.045c4.296 0 7.783-.808 10.462-2.424a7.633 7.633 0 0 0 1.863-1.568c.477.12.962.238 1.453.356 0 0 8.295 1.972 16.318 4.06-.194.263-.396.52-.604.772-1.683 2.036-4.163 3.896-7.44 5.579 5.004 1.816 8.779 4.694 11.326 8.635 1.745 2.702 2.892 5.799 3.441 9.292-2.414.466-5.225.699-8.434.699-5.369 0-9.696-.886-12.981-2.658-1.027-2.154-2.752-3.779-5.175-4.875-2.092-.948-4.942-1.491-8.549-1.629h-.012l-.165-.006h-.01l-.002-.001-.039-.001-.141-.004-.007-.001h-.003l-.062-.001-.121-.004h-.008l-.083-.002-.103-.002h-.004l-.002-.001-.102-.002-.088-.001h-.004l-.124-.002-.069-.002h-.002l-.197-.002h-24.377v4.043l-.002-.001v20.253l.002.001v1.808h5.963c.631.229 1.096.427 1.355.585 2.86 1.787 4.29 4.312 4.29 7.574 0 3.74-1.292 6.688-3.875 8.845zm23.015-17.626c1.262-.276 2.37-.644 3.327-1.105.461-.226.897-.473 1.309-.743 5.207 1.59 11.157 2.384 17.85 2.384 1.876 0 3.689-.066 5.439-.198a27.865 27.865 0 0 1-1.815 3.339c-1.86 3.056-4.185 5.624-6.974 7.705-3.144 2.392-6.853 4.03-11.126 4.916-2.823.585-5.805.977-8.947 1.175 1.137-3.159 1.705-6.57 1.705-10.233 0-2.594-.256-5.007-.768-7.24zm2.533-79.969c9.264 1.004 16.016 4.376 20.256 10.117 2.01 2.778 3.349 5.921 4.017 9.429-8.48-1.973-19.792-4.734-21.547-5.803-2.86-1.788-4.29-4.313-4.29-7.575 0-2.375.521-4.431 1.564-6.168zm-20.241 16.693h-5.447c-5.123-1.52-10.957-2.28-17.502-2.28-3.416 0-6.622.219-9.619.658V30.796h32.351c-.676 2.525-1.014 5.198-1.014 8.022 0 3.283.41 6.277 1.231 8.983z"/><g><path d="M-47.386 9.983c4.738 0 8.635.509 11.69 1.528 3.543 1.461 5.314 4.472 5.314 9.033 0 3.023-.722 5.372-2.165 7.047-3.404-.853-6.457-1.759-9.102-2.804-1.659-3.123-3.873-5.921-6.8-8.254a34.902 34.902 0 0 0-6.533-4.097 24.077 24.077 0 0 1-.888-2.453h8.484zm-8.693-17.004c1.486-5.539 4.599-10.356 9.339-14.452 6.904-5.966 16.657-8.949 29.259-8.949 12.87 0 22.991 2.938 30.365 8.814 4.801 3.827 8.04 8.587 9.679 14.353-1.786.46-3.826.685-6.092.685H1.169L.55-7.498c-3.351-4.066-9.094-6.099-17.227-6.099-4.871 0-8.825.536-11.864 1.608-3.307 1.18-5.666 2.94-7.075 5.281a56.32 56.32 0 0 0-5.261-.313h-15.202zM7.859 18.103c-1.398-2.575-2.388-5.392-2.97-8.451h11.916c4.206.044 7.48.586 9.86 1.647l.966 1.447c3.351 4.066 9.093 6.1 17.227 6.1 4.87 0 8.825-.537 11.864-1.609 1.914-.683 3.511-1.56 4.789-2.632h17.09c1.701 0 3.36-.051 4.976-.154-1.664 4.632-4.549 8.722-8.656 12.271-6.904 5.965-16.657 8.948-29.259 8.948-9.418 0-17.364-1.573-23.838-4.72-1.474-3.454-3.716-6.367-6.726-8.738-1.937-1.527-4.35-2.896-7.239-4.109z"/><path d="M49.981-25.289c-.668-3.509-2.007-6.651-4.016-9.429-2.809-3.804-6.721-6.567-11.734-8.291v-40.293h47.558c12.001.177 20.503 3.653 25.507 10.428 3.011 4.163 4.516 9.145 4.516 14.945 0 5.978-1.505 10.783-4.516 14.414-1.683 2.037-4.163 3.897-7.44 5.58 5.004 1.815 8.779 4.693 11.325 8.635 2.547 3.941 3.82 8.723 3.82 14.347 0 5.801-1.462 11.004-4.384 15.609-1.86 3.055-4.185 5.624-6.975 7.705-3.144 2.391-6.852 4.03-11.125 4.915-4.273.886-8.911 1.329-13.916 1.329H52.489c-.628-2.083-1.508-4-2.639-5.75-2.546-3.941-6.321-6.82-11.325-8.635 3.277-1.683 5.757-3.543 7.44-5.58.208-.251.41-.509.603-.772 0 0 4.752 1.25 7.191 1.937v1.796h24.045l.239-.001.12-.001h.067l.333-.005h.035l.053-.001.095-.002.181-.004.06-.002.101-.003.118-.003.049-.002c3.604-.117 6.464-.685 8.579-1.703 3.546-1.737 5.643-4.775 6.291-9.113l.003-.02.001-.006.004-.025.008-.056.004-.025.001-.013.005-.032.006-.044.003-.023.003-.021.005-.037.004-.035.003-.02.004-.028.005-.044.004-.026.001-.015.005-.036.006-.05.002-.018.001-.01.005-.044.007-.056.001-.011v-.004l.006-.057.006-.057.005-.047.007-.069.001-.004.001-.009.004-.048.005-.056.001-.011.002-.015.004-.043.004-.047.002-.02.001-.021.003-.037.004-.04.002-.028.002-.026.002-.031.003-.033.003-.036.002-.033.002-.024.002-.025.003-.047.002-.037.001-.017.001-.018.004-.059.003-.039v-.011l.001-.011.004-.08.002-.033v-.004l.007-.127v-.004l.001-.03.004-.085v-.011l.001-.01.001-.038.003-.062v-.02l.001-.016.001-.037.002-.05.001-.027v-.023l.001-.032.001-.041.001-.036.001-.029v-.027l.001-.032.001-.046.001-.034v-.044l.001-.057.001-.038v-.03l.001-.074v-.043-.253l-.001-.07V-16.565l-.003-.18v-.015l-.001-.015a11.298 11.298 0 0 0-.005-.184v-.004l-.001-.007c-.166-4.756-2.266-8.047-6.299-9.873l-.078-.035c-1.366-2.366-2.424-5.742-2.678-8.638-.296-3.378-.846-6.669-1.762-9.772 1.796-.404 3.379-1.019 4.751-1.847 2.679-1.616 4.018-4.483 4.018-8.602 0-4.561-1.771-7.572-5.314-9.033-3.055-1.018-6.951-1.528-11.69-1.528H53.759v21.587h8.805c1.553 2.346 2.866 5.939 3.006 9.195.108 2.505.364 4.835.786 7.013H53.759v4.085c-1.155-.264-2.43-.558-3.778-.871zM-7.574 13.694l5.778 1.331c7.463 1.787 13.093 4.178 16.892 7.172 5.899 4.648 8.848 11.373 8.848 20.176 0 9.027-3.452 16.523-10.356 22.489C7.708 69.943-.239 72.86-10.25 73.59c1.728-3.732 2.584-7.822 2.584-12.262 0-1.778-.127-3.471-.43-5.061a20.668 20.668 0 0 0 3.485-.89c5.764-2.055 8.647-5.876 8.647-11.462 0-3.262-1.43-5.787-4.29-7.574-.816-.497-3.672-1.393-7.32-2.394V13.694z"/><path d="M.161 52.76h-8.998a22.526 22.526 0 0 0-2.648-5.779c-2.546-3.942-6.321-6.82-11.325-8.635 3.277-1.683 5.757-3.543 7.439-5.58 3.011-3.631 4.517-8.436 4.517-14.414 0-5.8-1.506-10.782-4.517-14.945-2.808-3.802-6.718-6.565-11.729-8.289v-7.556c2.814-.773 6.289-1.159 10.423-1.159 3.471 0 6.505.37 9.105 1.11v5.932h24.045c4.295 0 7.782-.808 10.461-2.425a7.594 7.594 0 0 0 1.864-1.567c.477.12.961.238 1.452.356 0 0 8.296 1.972 16.318 4.059-.193.263-.395.521-.603.772-1.683 2.037-4.163 3.897-7.44 5.58 5.004 1.815 8.779 4.694 11.325 8.635 1.746 2.702 2.893 5.799 3.442 9.292-2.414.466-5.225.699-8.434.699-5.369 0-9.696-.886-12.981-2.659-1.028-2.153-2.753-3.778-5.175-4.875-2.093-.947-4.943-1.49-8.549-1.628H18.14l-.164-.006-.01-.001h-.002l-.039-.001-.141-.005h-.01l-.062-.002-.121-.003h-.008l-.083-.002-.103-.003h-.007l-.101-.002-.088-.002h-.004l-.125-.002-.068-.001h-.002l-.197-.002H-7.572v4.042h-.002v20.253h.002v1.809h5.963c.631.229 1.096.427 1.355.585 2.86 1.787 4.29 4.312 4.29 7.574 0 3.739-1.292 6.688-3.875 8.845zm23.015-17.626c1.261-.276 2.37-.645 3.327-1.105.46-.226.897-.473 1.309-.743 5.206 1.589 11.156 2.384 17.85 2.384 1.876 0 3.689-.066 5.439-.198a28.007 28.007 0 0 1-1.815 3.339c-1.86 3.056-4.185 5.624-6.975 7.705-3.144 2.391-6.852 4.03-11.125 4.916-2.823.585-5.806.976-8.948 1.175 1.137-3.159 1.706-6.57 1.706-10.234 0-2.593-.256-5.006-.768-7.239zm2.533-79.969c9.263 1.003 16.015 4.376 20.256 10.117 2.009 2.778 3.348 5.921 4.016 9.429-8.479-1.974-19.791-4.734-21.546-5.803-2.86-1.788-4.29-4.313-4.29-7.575 0-2.375.521-4.431 1.564-6.168zM5.468-28.143H.021c-5.123-1.519-10.957-2.279-17.502-2.279-3.416 0-6.622.219-9.619.657v-15.382H5.25c-.675 2.524-1.013 5.198-1.013 8.022 0 3.283.41 6.276 1.231 8.982z"/></g><g><path d="M197.946 314.021c4.739 0 8.635.509 11.691 1.528 3.542 1.461 5.313 4.472 5.313 9.033 0 3.023-.721 5.372-2.165 7.047-3.404-.853-6.457-1.759-9.102-2.804-1.658-3.123-3.873-5.921-6.8-8.254a34.894 34.894 0 0 0-6.532-4.097 24.077 24.077 0 0 1-.888-2.453h8.483zm-8.692-17.004c1.485-5.539 4.598-10.356 9.339-14.453 6.904-5.965 16.657-8.948 29.259-8.948 12.869 0 22.991 2.938 30.364 8.814 4.802 3.827 8.04 8.587 9.68 14.353-1.787.46-3.827.685-6.092.685h-15.302l-.619-.928c-3.352-4.066-9.094-6.099-17.227-6.099-4.871 0-8.826.536-11.865 1.608-3.307 1.18-5.665 2.94-7.075 5.281a56.277 56.277 0 0 0-5.26-.313h-15.202z"/><path d="M172.648 355.03c-.669-3.509-2.008-6.651-4.017-9.429-2.809-3.804-6.72-6.567-11.734-8.291v-40.293h47.559c12 .177 20.502 3.653 25.506 10.428 3.011 4.163 4.517 9.145 4.517 14.945 0 5.978-1.506 10.783-4.517 14.414-1.683 2.037-4.163 3.897-7.439 5.58 5.003 1.815 8.778 4.693 11.325 8.634 2.546 3.942 3.819 8.724 3.819 14.348 0 5.801-1.461 11.004-4.384 15.609-1.86 3.055-4.185 5.624-6.974 7.705-3.144 2.391-6.853 4.03-11.126 4.915-4.273.886-8.911 1.329-13.916 1.329h-26.111c-.629-2.083-1.508-4-2.639-5.75-2.547-3.941-6.322-6.82-11.326-8.635 3.277-1.683 5.757-3.543 7.44-5.58.208-.251.41-.509.604-.772 0 0 4.752 1.25 7.19 1.937v1.796h24.045l.239-.001.121-.001h.067l.332-.005h.036l.052-.001.096-.002.181-.004.059-.002.101-.003.118-.003.049-.002c3.604-.117 6.464-.685 8.579-1.703 3.546-1.737 5.643-4.775 6.292-9.113l.003-.02.001-.006.003-.025.008-.056.004-.025.002-.013.004-.032.006-.044.003-.023.003-.021.005-.037.005-.035.002-.02.004-.028.006-.044.003-.026.002-.015.004-.036.006-.05.002-.018.001-.01.005-.044.007-.056.001-.011v-.004l.007-.057.006-.057.005-.047.007-.069v-.004l.001-.009.004-.048.006-.056.001-.011.001-.015.004-.043.004-.048.002-.019.002-.021.003-.037.003-.04.002-.028.002-.027.003-.03.002-.033.003-.036.002-.033.002-.024.002-.025.003-.047.002-.037.002-.017.001-.018.003-.059.003-.039v-.011l.001-.011.005-.08.001-.033.001-.004.006-.127v-.004l.001-.03.004-.085.001-.011v-.01l.002-.038.002-.062.001-.02v-.016l.001-.037.002-.05.001-.027.001-.023v-.032l.002-.041v-.036l.001-.029.001-.027v-.032l.001-.046.001-.034v-.02l.001-.024v-.057l.001-.038v-.03l.001-.074v-.043l.001-.134-.001-.119-.001-.07V363.754l-.003-.18v-.015l-.001-.015a11.298 11.298 0 0 0-.005-.184v-.011c-.167-4.756-2.266-8.047-6.3-9.873l-.077-.035c-1.366-2.366-2.425-5.742-2.679-8.638-.296-3.378-.846-6.669-1.761-9.772 1.795-.404 3.378-1.019 4.75-1.847 2.679-1.616 4.018-4.483 4.018-8.602 0-4.561-1.771-7.572-5.313-9.033-3.055-1.018-6.952-1.528-11.691-1.528h-21.521v21.587h8.805c1.553 2.346 2.866 5.939 3.006 9.195.108 2.505.364 4.835.787 7.013h-12.598v4.085c-1.154-.264-2.43-.558-3.777-.871z"/><path d="M245.493 356.798h-8.997a22.548 22.548 0 0 0-2.648-5.78c-2.547-3.941-6.322-6.819-11.325-8.634 3.276-1.683 5.756-3.543 7.439-5.58 3.011-3.631 4.517-8.436 4.517-14.414 0-5.8-1.506-10.782-4.517-14.945-2.808-3.802-6.718-6.565-11.73-8.289V291.6c2.815-.773 6.289-1.159 10.424-1.159 3.47 0 6.505.37 9.105 1.11v5.932h24.045c4.295 0 7.782-.808 10.461-2.425a7.612 7.612 0 0 0 1.864-1.567c.477.12.961.238 1.452.356 0 0 8.295 1.972 16.318 4.059-.194.263-.395.521-.604.772-1.683 2.037-4.162 3.897-7.439 5.58 5.004 1.815 8.779 4.694 11.325 8.635 1.745 2.702 2.893 5.799 3.442 9.292-2.414.466-5.226.699-8.435.699-5.369 0-9.696-.886-12.981-2.659-1.027-2.153-2.752-3.778-5.174-4.875-2.093-.947-4.943-1.49-8.55-1.628h-.012l-.165-.006-.01-.001h-.002l-.038-.001-.141-.005h-.011l-.062-.002-.12-.003H262.915l-.082-.002-.104-.003h-.006l-.102-.002-.088-.002h-.004l-.124-.002-.069-.001h-.002l-.196-.002h-24.377v4.042h-.002v20.253h.002v1.809h5.962c.631.229 1.096.427 1.355.585 2.86 1.787 4.29 4.312 4.29 7.574 0 3.739-1.291 6.688-3.875 8.845zm23.016-17.626c1.261-.276 2.37-.645 3.326-1.105.461-.226.897-.474 1.309-.743 5.207 1.589 11.157 2.384 17.85 2.384 1.877 0 3.69-.066 5.44-.198a27.873 27.873 0 0 1-1.816 3.339c-1.86 3.056-4.184 5.624-6.974 7.705-3.144 2.391-6.853 4.03-11.126 4.915-2.823.586-5.805.977-8.947 1.176 1.137-3.159 1.706-6.57 1.706-10.234 0-2.593-.256-5.006-.768-7.239zm2.532-79.969c9.264 1.003 16.016 4.376 20.256 10.117 2.01 2.778 3.349 5.921 4.017 9.429-8.479-1.974-19.791-4.734-21.546-5.803-2.86-1.788-4.29-4.313-4.29-7.575 0-2.375.521-4.431 1.563-6.168zM250.8 275.895h-5.446c-5.124-1.519-10.958-2.279-17.502-2.279-3.416 0-6.623.219-9.62.657v-15.382h32.351c-.676 2.524-1.014 5.198-1.014 8.022 0 3.283.411 6.276 1.231 8.982z"/></g><g><path d="M115.092 241.763l5.778 1.331c7.463 1.787 13.094 4.178 16.892 7.172 5.899 4.648 8.848 11.373 8.848 20.176 0 9.027-3.452 16.523-10.356 22.489-5.88 5.081-13.827 7.998-23.837 8.728 1.727-3.732 2.584-7.822 2.584-12.262 0-1.778-.128-3.471-.43-5.061a20.656 20.656 0 0 0 3.484-.89c5.765-2.055 8.647-5.876 8.647-11.462 0-3.262-1.43-5.787-4.29-7.574-.815-.497-3.671-1.393-7.32-2.394v-20.253zM69.256 284.325c-2.279-4.316-3.424-9.386-3.686-15.491-.16-3.723-1.854-7.888-3.687-10.122-1.922-2.332-4.63-3.995-8.124-4.99v-15.67h7.545c4.973 1.469 9.277 3.652 12.913 6.55 7.373 5.876 10.225 14.709 11.06 24.232.314 3.577 1.855 7.887 3.687 10.121 1.108 1.345 2.478 2.467 4.143 3.35.838 1.569 1.236 3.482 1.236 5.697 0 5.386-1.735 9.213-5.21 11.465a40.343 40.343 0 0 1-5.993-2.32c-1.462-3.46-3.703-6.37-6.711-8.74-1.922-1.515-4.313-2.876-7.173-4.082zM191.922 208.044c-2.279-4.316-3.423-9.386-3.686-15.491-.16-3.723-1.854-7.888-3.686-10.122-1.922-2.332-4.63-3.995-8.125-4.99v-15.67h7.546c4.972 1.469 9.276 3.652 12.912 6.55 7.373 5.876 10.225 14.709 11.06 24.232.314 3.577 1.855 7.887 3.687 10.121 1.108 1.345 2.478 2.467 4.143 3.35.839 1.569 1.237 3.482 1.237 5.697 0 5.386-1.736 9.213-5.211 11.465a40.386 40.386 0 0 1-5.993-2.32c-1.461-3.46-3.703-6.37-6.711-8.74-1.922-1.515-4.313-2.876-7.173-4.082z"/><path d="M75.28 238.052c4.738 0 8.635.51 11.69 1.528 3.543 1.461 5.314 4.472 5.314 9.033 0 3.023-.722 5.372-2.165 7.047-3.404-.853-6.457-1.759-9.102-2.804-1.659-3.123-3.873-5.921-6.8-8.254a34.87 34.87 0 0 0-6.533-4.097 24.077 24.077 0 0 1-.888-2.453h8.484zm-8.693-17.004c1.486-5.539 4.599-10.356 9.339-14.452 6.904-5.966 16.657-8.949 29.259-8.949 12.87 0 22.992 2.938 30.365 8.814 4.802 3.827 8.04 8.587 9.68 14.353-1.787.46-3.827.685-6.093.685h-15.301l-.62-.928c-3.351-4.066-9.093-6.099-17.226-6.099-4.871 0-8.826.536-11.865 1.608-3.307 1.18-5.665 2.94-7.075 5.281a56.3 56.3 0 0 0-5.261-.313H66.587zM197.946 161.771c4.739 0 8.635.509 11.691 1.528 3.542 1.461 5.313 4.472 5.313 9.033 0 3.023-.721 5.372-2.165 7.047-3.404-.853-6.457-1.759-9.102-2.804-1.658-3.123-3.873-5.921-6.8-8.254a34.894 34.894 0 0 0-6.532-4.097 24.077 24.077 0 0 1-.888-2.453h8.483zm-8.692-17.004c1.485-5.539 4.598-10.356 9.339-14.452 6.904-5.966 16.657-8.949 29.259-8.949 12.869 0 22.991 2.938 30.364 8.814 4.802 3.827 8.04 8.587 9.68 14.353-1.787.46-3.827.685-6.092.685h-15.302l-.619-.928c-3.352-4.066-9.094-6.099-17.227-6.099-4.871 0-8.826.536-11.865 1.608-3.307 1.18-5.665 2.94-7.075 5.281a56.277 56.277 0 0 0-5.26-.313h-15.202zM-47.386 314.333c4.738 0 8.635.51 11.69 1.528 3.543 1.461 5.314 4.472 5.314 9.033 0 3.023-.722 5.372-2.165 7.047-3.404-.853-6.457-1.759-9.102-2.804-1.659-3.123-3.873-5.921-6.8-8.254a34.902 34.902 0 0 0-6.533-4.097 24.077 24.077 0 0 1-.888-2.453h8.484zm-8.693-17.004c1.486-5.539 4.599-10.356 9.339-14.452 6.904-5.966 16.657-8.949 29.259-8.949 12.87 0 22.991 2.938 30.365 8.814 4.801 3.827 8.04 8.587 9.679 14.353-1.786.46-3.826.685-6.092.685H1.169l-.619-.928c-3.351-4.066-9.094-6.099-17.227-6.099-4.871 0-8.825.536-11.864 1.608-3.307 1.18-5.666 2.94-7.075 5.281a56.32 56.32 0 0 0-5.261-.313h-15.202zM130.525 246.172c-1.397-2.575-2.388-5.392-2.97-8.451h11.916c4.207.044 7.481.586 9.86 1.647l.966 1.447c3.351 4.066 9.094 6.1 17.227 6.1 4.871 0 8.826-.537 11.864-1.609 1.915-.683 3.511-1.56 4.79-2.632h17.089c1.701 0 3.36-.051 4.976-.154-1.664 4.632-4.549 8.722-8.656 12.271-6.904 5.965-16.657 8.948-29.259 8.948-9.417 0-17.363-1.573-23.838-4.72-1.473-3.454-3.716-6.367-6.726-8.738-1.936-1.527-4.349-2.896-7.239-4.109z"/><path d="M49.981 279.061c-.668-3.509-2.007-6.651-4.016-9.429-2.809-3.804-6.721-6.567-11.734-8.291v-40.293h47.558c12.001.177 20.503 3.653 25.507 10.428 3.011 4.163 4.516 9.145 4.516 14.945 0 5.978-1.505 10.783-4.516 14.414-1.683 2.037-4.163 3.897-7.44 5.58 5.004 1.815 8.779 4.693 11.325 8.635 2.547 3.941 3.82 8.723 3.82 14.347 0 5.801-1.462 11.004-4.384 15.609-1.86 3.055-4.185 5.624-6.975 7.705-3.144 2.391-6.852 4.03-11.125 4.915-4.273.886-8.911 1.329-13.916 1.329H52.489c-.628-2.083-1.508-4-2.639-5.75-2.546-3.941-6.321-6.82-11.325-8.635 3.277-1.683 5.757-3.543 7.44-5.58.208-.251.41-.508.603-.772 0 0 4.752 1.25 7.191 1.937v1.796h24.045l.239-.001.12-.001h.067l.333-.005h.035l.053-.001.095-.002.181-.004.06-.002.101-.003.118-.003.049-.002c3.604-.117 6.464-.685 8.579-1.703 3.546-1.737 5.643-4.775 6.291-9.113l.003-.02.001-.006.004-.025.008-.056.004-.025.001-.013.005-.032.006-.044.003-.023.003-.021.005-.037.004-.035.003-.02.004-.028.005-.044.004-.026.001-.015.005-.036.006-.05.002-.018.001-.01.005-.044.007-.056.001-.011v-.004l.006-.057.006-.057.005-.047.007-.069.001-.004.001-.009.004-.048.005-.056.001-.011.002-.015.004-.043.004-.047.002-.02.001-.021.003-.037.004-.04.002-.028.002-.026.002-.031.003-.033.003-.036.002-.033.002-.024.002-.025.003-.046.002-.038.001-.017.001-.018.004-.059.003-.039v-.011l.001-.011.004-.08.002-.033v-.004l.007-.127v-.004l.001-.03.004-.085v-.011l.001-.01.001-.038.003-.062v-.019l.001-.017.001-.037.002-.05.001-.027v-.023l.001-.032.001-.041.001-.036.001-.029v-.027l.001-.032.001-.046.001-.034v-.044l.001-.057.001-.038v-.03l.001-.073v-.044-.253l-.001-.07V287.785l-.003-.18v-.015l-.001-.015a11.298 11.298 0 0 0-.005-.184v-.004l-.001-.007c-.166-4.756-2.266-8.047-6.299-9.873l-.078-.035c-1.366-2.366-2.424-5.742-2.678-8.638-.296-3.378-.846-6.669-1.762-9.772 1.796-.404 3.379-1.019 4.751-1.847 2.679-1.616 4.018-4.483 4.018-8.602 0-4.561-1.771-7.572-5.314-9.033-3.055-1.018-6.951-1.528-11.69-1.528H53.759v21.588h8.805c1.553 2.345 2.866 5.938 3.006 9.194.108 2.505.364 4.835.786 7.013H53.759v4.085c-1.155-.264-2.43-.558-3.778-.871zM172.648 202.78c-.669-3.509-2.008-6.651-4.017-9.429-2.809-3.804-6.72-6.567-11.734-8.291v-40.293h47.559c12 .177 20.502 3.653 25.506 10.428 3.011 4.163 4.517 9.145 4.517 14.945 0 5.978-1.506 10.783-4.517 14.414-1.683 2.037-4.163 3.897-7.439 5.58 5.003 1.815 8.778 4.693 11.325 8.635 2.546 3.941 3.819 8.723 3.819 14.347 0 5.801-1.461 11.004-4.384 15.609-1.86 3.055-4.185 5.624-6.974 7.705-3.144 2.391-6.853 4.03-11.126 4.915-4.273.886-8.911 1.329-13.916 1.329h-26.111c-.629-2.083-1.508-4-2.639-5.75-2.547-3.941-6.322-6.82-11.326-8.635 3.277-1.683 5.757-3.543 7.44-5.58.208-.251.41-.508.604-.772 0 0 4.752 1.25 7.19 1.937v1.796h24.045l.239-.001.121-.001h.067l.332-.005h.036l.052-.001.096-.002.181-.004.059-.002.101-.003.118-.003.049-.002c3.604-.117 6.464-.685 8.579-1.703 3.546-1.737 5.643-4.775 6.292-9.113l.003-.02.001-.006.003-.025.008-.056.004-.025.002-.013.004-.032.006-.044.003-.023.003-.021.005-.037.005-.035.002-.02.004-.028.006-.044.003-.026.002-.015.004-.036.006-.05.002-.018.001-.01.005-.044.007-.056.001-.011v-.004l.007-.057.006-.057.005-.047.007-.069v-.004l.001-.009.004-.048.006-.056.001-.011.001-.015.004-.043.004-.047.002-.02.002-.021.003-.037.003-.04.002-.028.002-.026.003-.031.002-.033.003-.036.002-.033.002-.024.002-.025.003-.046.002-.038.002-.017.001-.018.003-.059.003-.039v-.011l.001-.011.005-.08.001-.033.001-.004.006-.127v-.004l.001-.03.004-.085.001-.011v-.01l.002-.038.002-.062.001-.02v-.016l.001-.037.002-.05.001-.027.001-.023v-.032l.002-.041v-.036l.001-.029.001-.027v-.032l.001-.046.001-.034v-.02l.001-.024v-.057l.001-.038v-.03l.001-.073v-.044l.001-.134-.001-.119-.001-.07V211.504l-.003-.18v-.015l-.001-.015a11.298 11.298 0 0 0-.005-.184v-.011c-.167-4.756-2.266-8.047-6.3-9.873l-.077-.035c-1.366-2.366-2.425-5.742-2.679-8.638-.296-3.378-.846-6.669-1.761-9.772 1.795-.404 3.378-1.019 4.75-1.847 2.679-1.616 4.018-4.483 4.018-8.602 0-4.561-1.771-7.572-5.313-9.033-3.055-1.018-6.952-1.528-11.691-1.528h-21.521v21.588h8.805c1.553 2.345 2.866 5.938 3.006 9.194.108 2.505.364 4.835.787 7.013h-12.598v4.085c-1.154-.264-2.43-.558-3.777-.871z"/><path d="M6.359 278.663c-1.415-3.315-2.122-7.127-2.122-11.438 0-9.027 3.452-16.523 10.356-22.489 5.033-4.348 11.578-7.112 19.638-8.291v17.327c-.501.137-.98.287-1.439.449-5.765 2.055-8.647 5.876-8.647 11.462 0 3.262 1.43 5.787 4.29 7.575 2.86 1.742 31.102 7.976 31.102 7.976 7.463 1.788 13.094 4.179 16.892 7.173 4.145 3.265 6.833 7.556 8.033 12.897-1.886.443-4.103.647-6.658.647H59.585c-6.592-2.386-29.335-7.792-29.335-7.792-3.797-.91-7.191-1.868-10.11-2.985-1.788-3.182-4.206-5.987-7.254-8.417a34.926 34.926 0 0 0-6.527-4.094zM129.025 202.382c-1.415-3.315-2.122-7.127-2.122-11.438 0-9.027 3.452-16.523 10.356-22.489 5.033-4.348 11.579-7.112 19.638-8.291v17.327c-.5.137-.98.287-1.439.449-5.764 2.055-8.647 5.876-8.647 11.462 0 3.262 1.43 5.787 4.29 7.575 2.86 1.742 31.103 7.976 31.103 7.976 7.462 1.788 13.093 4.179 16.891 7.173 4.145 3.265 6.834 7.556 8.033 12.897-1.885.443-4.103.647-6.658.647h-18.219c-6.592-2.386-29.334-7.792-29.334-7.792-3.798-.91-7.192-1.868-10.11-2.985-1.788-3.182-4.207-5.987-7.255-8.417a34.893 34.893 0 0 0-6.527-4.094zM237.759 165.482l5.778 1.331c7.462 1.787 13.093 4.178 16.891 7.172 5.899 4.648 8.849 11.373 8.849 20.176 0 9.027-3.453 16.523-10.357 22.489-5.88 5.081-13.827 7.998-23.837 8.728 1.728-3.732 2.584-7.822 2.584-12.262 0-1.778-.127-3.471-.43-5.061a20.631 20.631 0 0 0 3.484-.89c5.765-2.055 8.647-5.876 8.647-11.462 0-3.262-1.43-5.787-4.29-7.574-.815-.497-3.671-1.393-7.319-2.394v-20.253z"/><path d="M245.493 204.548h-8.997a22.526 22.526 0 0 0-2.648-5.779c-2.547-3.942-6.322-6.82-11.325-8.635 3.276-1.683 5.756-3.543 7.439-5.58 3.011-3.631 4.517-8.436 4.517-14.414 0-5.8-1.506-10.782-4.517-14.945-2.808-3.802-6.718-6.565-11.73-8.289v-7.556c2.815-.773 6.289-1.159 10.424-1.159 3.47 0 6.505.37 9.105 1.11v5.932h24.045c4.295 0 7.782-.808 10.461-2.425a7.612 7.612 0 0 0 1.864-1.567c.477.12.961.238 1.452.356 0 0 8.295 1.972 16.318 4.059-.194.263-.395.521-.604.772-1.683 2.037-4.162 3.897-7.439 5.58 5.004 1.815 8.779 4.694 11.325 8.635 1.745 2.702 2.893 5.799 3.442 9.292-2.414.466-5.226.699-8.435.699-5.369 0-9.696-.886-12.981-2.659-1.027-2.153-2.752-3.778-5.174-4.875-2.093-.947-4.943-1.49-8.55-1.628h-.012l-.165-.006-.01-.001h-.002l-.038-.001-.141-.004-.008-.001h-.003l-.062-.002-.12-.003H262.915l-.082-.002-.104-.003h-.006l-.102-.002-.088-.002h-.004l-.124-.002-.069-.001h-.002l-.196-.002h-24.377v4.042h-.002v20.253h.002v1.809h5.962c.631.229 1.096.427 1.355.585 2.86 1.787 4.29 4.312 4.29 7.574 0 3.739-1.291 6.688-3.875 8.845zm23.016-17.626c1.261-.276 2.37-.645 3.326-1.105.461-.226.897-.473 1.309-.743 5.207 1.589 11.157 2.384 17.85 2.384 1.877 0 3.69-.066 5.44-.198a27.873 27.873 0 0 1-1.816 3.339c-1.86 3.056-4.184 5.624-6.974 7.705-3.144 2.391-6.853 4.03-11.126 4.916-2.823.585-5.805.976-8.947 1.175 1.137-3.159 1.706-6.57 1.706-10.234 0-2.593-.256-5.006-.768-7.239zm2.532-79.969c9.264 1.003 16.016 4.376 20.256 10.117 2.01 2.778 3.349 5.921 4.017 9.429-8.479-1.974-19.791-4.734-21.546-5.803-2.86-1.788-4.29-4.313-4.29-7.575 0-2.375.521-4.431 1.563-6.168zM250.8 123.645h-5.446c-5.124-1.519-10.958-2.279-17.502-2.279-3.416 0-6.623.219-9.62.657v-15.382h32.351c-.676 2.524-1.014 5.198-1.014 8.022 0 3.283.411 6.276 1.231 8.982zM.161 357.11h-8.998a22.526 22.526 0 0 0-2.648-5.779c-2.546-3.942-6.321-6.82-11.325-8.635 3.277-1.683 5.757-3.543 7.439-5.58 3.011-3.631 4.517-8.436 4.517-14.414 0-5.8-1.506-10.782-4.517-14.945-2.808-3.802-6.718-6.565-11.729-8.289v-7.556c2.814-.773 6.289-1.159 10.423-1.159 3.471 0 6.505.37 9.105 1.11v5.932h24.045c4.295 0 7.782-.808 10.461-2.425a7.594 7.594 0 0 0 1.864-1.567c.477.12.961.238 1.452.356 0 0 8.296 1.972 16.318 4.059a16.14 16.14 0 0 1-.603.772c-1.683 2.037-4.163 3.897-7.44 5.58 5.004 1.815 8.779 4.694 11.325 8.635 1.746 2.702 2.893 5.799 3.442 9.292-2.414.466-5.225.699-8.434.699-5.369 0-9.696-.886-12.981-2.659-1.028-2.153-2.753-3.778-5.175-4.875-2.093-.947-4.943-1.49-8.549-1.628H18.14l-.164-.006-.01-.001h-.002l-.039-.001-.141-.004-.007-.001h-.003l-.062-.002-.121-.003h-.008l-.083-.002-.103-.003h-.007l-.101-.002-.088-.002h-.004l-.125-.002-.068-.001h-.002l-.197-.002H-7.572v4.042h-.002v20.253l.002.001v1.808h5.963c.631.229 1.096.427 1.355.585 2.86 1.787 4.29 4.312 4.29 7.574 0 3.739-1.292 6.688-3.875 8.845zm23.015-17.626c1.261-.276 2.37-.645 3.327-1.105.46-.226.897-.473 1.309-.743 5.206 1.589 11.156 2.384 17.85 2.384 1.876 0 3.689-.066 5.439-.198a28.007 28.007 0 0 1-1.815 3.339c-1.86 3.056-4.185 5.624-6.975 7.705-3.144 2.391-6.852 4.03-11.125 4.916-2.823.585-5.806.976-8.948 1.175 1.137-3.159 1.706-6.57 1.706-10.234 0-2.593-.256-5.006-.768-7.239zm2.533-79.969c9.263 1.003 16.015 4.376 20.256 10.117 2.009 2.778 3.348 5.921 4.016 9.429-8.479-1.974-19.791-4.734-21.546-5.803-2.86-1.788-4.29-4.313-4.29-7.575 0-2.375.521-4.431 1.564-6.168zM5.468 276.207H.021c-5.123-1.519-10.957-2.279-17.502-2.279-3.416 0-6.622.219-9.619.657v-15.382H5.25c-.675 2.524-1.013 5.198-1.013 8.022 0 3.283.41 6.276 1.231 8.982zM122.827 280.829h-8.998a22.493 22.493 0 0 0-2.648-5.779c-2.546-3.942-6.321-6.82-11.325-8.635 3.277-1.683 5.757-3.543 7.44-5.58 3.011-3.631 4.516-8.436 4.516-14.414 0-5.8-1.505-10.782-4.516-14.945-2.808-3.802-6.718-6.565-11.73-8.289v-7.556c2.814-.773 6.289-1.159 10.424-1.159 3.47 0 6.505.37 9.104 1.11v5.932h24.045c4.296 0 7.783-.808 10.462-2.425a7.607 7.607 0 0 0 1.863-1.567c.477.12.962.238 1.453.356 0 0 8.295 1.972 16.318 4.059-.194.264-.396.521-.604.772-1.683 2.037-4.163 3.897-7.44 5.58 5.004 1.815 8.779 4.694 11.326 8.635 1.745 2.702 2.892 5.799 3.441 9.292-2.414.466-5.225.699-8.434.699-5.369 0-9.696-.886-12.981-2.659-1.027-2.153-2.752-3.778-5.175-4.875-2.092-.947-4.942-1.49-8.549-1.628h-.012l-.165-.006-.01-.001h-.002l-.039-.001-.141-.004-.007-.001h-.003l-.062-.002-.121-.003h-.008l-.083-.002-.103-.003h-.006l-.102-.002-.088-.002h-.004l-.124-.002-.069-.001h-.002l-.197-.002h-24.377v4.042h-.002v20.253l.002.001v1.808h5.963c.631.229 1.096.427 1.355.585 2.86 1.787 4.29 4.312 4.29 7.574 0 3.739-1.292 6.688-3.875 8.845zm23.015-17.626c1.262-.276 2.37-.645 3.327-1.105.461-.226.897-.473 1.309-.743 5.207 1.589 11.157 2.384 17.85 2.384 1.876 0 3.689-.066 5.439-.198a27.865 27.865 0 0 1-1.815 3.339c-1.86 3.056-4.185 5.624-6.974 7.705-3.144 2.391-6.853 4.03-11.126 4.916-2.823.585-5.805.976-8.947 1.175 1.137-3.159 1.705-6.57 1.705-10.234 0-2.593-.256-5.006-.768-7.239zm2.533-79.969c9.264 1.003 16.016 4.376 20.256 10.117 2.01 2.778 3.349 5.921 4.017 9.429-8.48-1.974-19.792-4.734-21.547-5.803-2.86-1.788-4.29-4.313-4.29-7.575 0-2.375.521-4.431 1.564-6.168zm-20.241 16.692h-5.447c-5.123-1.519-10.957-2.279-17.502-2.279-3.416 0-6.622.219-9.619.657v-15.382h32.351c-.676 2.524-1.014 5.198-1.014 8.022 0 3.283.41 6.276 1.231 8.982z"/></g></g></svg>